<svg width="48" height="49" viewBox="0 0 48 49" fill="none" xmlns="http://www.w3.org/2000/svg">
<path d="M21 10.1C20.0025 10.1 19.2 10.9025 19.2 11.9C19.2 12.8975 20.0025 13.7 21 13.7H22.2V16.1975C14.16 17.0525 7.81505 23.5775 7.24505 31.7H40.7626C40.1851 23.5775 33.84 17.0525 25.8 16.1975V13.7H27C27.9975 13.7 28.8 12.8975 28.8 11.9C28.8 10.9025 27.9975 10.1 27 10.1H21ZM6.60005 35.3C5.60255 35.3 4.80005 36.1025 4.80005 37.1C4.80005 38.0975 5.60255 38.9 6.60005 38.9H41.4001C42.3976 38.9 43.2001 38.0975 43.2001 37.1C43.2001 36.1025 42.3976 35.3 41.4001 35.3H6.60005Z" fill="white"/>
</svg>
