<svg width="48" height="49" viewBox="0 0 48 49" fill="none" xmlns="http://www.w3.org/2000/svg">
<path d="M4.80005 10.1C4.80005 8.7725 5.87255 7.7 7.20005 7.7H40.8001C42.1276 7.7 43.2001 8.7725 43.2001 10.1V12.5C43.2001 13.8275 42.1276 14.9 40.8001 14.9H7.20005C5.87255 14.9 4.80005 13.8275 4.80005 12.5V10.1ZM7.20005 18.5H40.8001V36.5C40.8001 39.1475 38.6476 41.3 36.0001 41.3H12C9.35255 41.3 7.20005 39.1475 7.20005 36.5V18.5ZM18.6 23.3C17.6025 23.3 16.8 24.1025 16.8 25.1C16.8 26.0975 17.6025 26.9 18.6 26.9H29.4C30.3975 26.9 31.2 26.0975 31.2 25.1C31.2 24.1025 30.3975 23.3 29.4 23.3H18.6Z" fill="white"/>
</svg>
