<svg width="48" height="49" viewBox="0 0 48 49" fill="none" xmlns="http://www.w3.org/2000/svg">
<path d="M19.4324 6.01251C19.6574 4.90251 20.6399 4.10001 21.7799 4.10001H26.2649C27.4049 4.10001 28.3874 4.90251 28.6124 6.01251L29.6999 11.2625C30.7574 11.7125 31.7474 12.29 32.6474 12.9725L37.7324 11.285C38.8124 10.925 39.9974 11.375 40.5674 12.365L42.8099 16.25C43.3799 17.24 43.1774 18.485 42.3224 19.2425L38.3249 22.7975C38.3924 23.3525 38.4224 23.9225 38.4224 24.5C38.4224 25.0775 38.3849 25.6475 38.3249 26.2025L42.3299 29.765C43.1849 30.5225 43.3799 31.775 42.8174 32.7575L40.5749 36.6425C40.0049 37.625 38.8199 38.0825 37.7399 37.7225L32.6549 36.035C31.7474 36.7175 30.7574 37.2875 29.7074 37.745L28.6274 42.9875C28.3949 44.105 27.4124 44.9 26.2799 44.9H21.7949C20.6549 44.9 19.6724 44.0975 19.4474 42.9875L18.3674 37.745C17.3099 37.295 16.3274 36.7175 15.4199 36.035L10.3124 37.7225C9.23245 38.0825 8.04745 37.6325 7.47745 36.6425L5.23495 32.7575C4.66495 31.7675 4.86745 30.5225 5.72245 29.765L9.72744 26.2025C9.65994 25.6475 9.62994 25.0775 9.62994 24.5C9.62994 23.9225 9.66744 23.3525 9.72744 22.7975L5.72245 19.235C4.86745 18.4775 4.67245 17.225 5.23495 16.2425L7.47745 12.3575C8.04745 11.3675 9.23245 10.9175 10.3124 11.2775L15.3974 12.965C16.3049 12.2825 17.2949 11.7125 18.3449 11.255L19.4324 6.01251ZM24.0224 30.5C27.3374 30.485 30.0149 27.7925 29.9999 24.4775C29.9849 21.1625 27.2924 18.485 23.9774 18.5C20.6624 18.515 17.9849 21.2075 17.9999 24.5225C18.0149 27.8375 20.7074 30.515 24.0224 30.5Z" fill="white"/>
</svg>
