<svg width="48" height="49" viewBox="0 0 48 49" fill="none" xmlns="http://www.w3.org/2000/svg">
<path d="M25.635 5.94501C24.7125 5.09001 23.2875 5.09001 22.3725 5.94501L5.57252 21.545C4.85252 22.22 4.61252 23.2625 4.97252 24.1775C5.33252 25.0925 6.21002 25.7 7.20002 25.7H8.40002V38.9C8.40002 41.5475 10.5525 43.7 13.2 43.7H34.8C37.4475 43.7 39.6 41.5475 39.6 38.9V25.7H40.8C41.79 25.7 42.675 25.0925 43.035 24.1775C43.395 23.2625 43.155 22.2125 42.435 21.545L25.635 5.94501ZM22.8 29.3H25.2C27.1875 29.3 28.8 30.9125 28.8 32.9V40.1H19.2V32.9C19.2 30.9125 20.8125 29.3 22.8 29.3Z" fill="white"/>
</svg>
