<svg width="36" height="36" viewBox="0 0 36 36" fill="none" xmlns="http://www.w3.org/2000/svg">
<path d="M16.5712 25.5713L12.0712 30.0712C11.3681 30.7744 10.2262 30.7744 9.52312 30.0712L5.02312 25.5713C4.32 24.8681 4.32 23.7262 5.02312 23.0231C5.72625 22.32 6.86812 22.32 7.57125 23.0231L9 24.4519V7.2C9 6.20438 9.80437 5.4 10.8 5.4C11.7956 5.4 12.6 6.20438 12.6 7.2V24.4519L14.0287 23.0231C14.7319 22.32 15.8737 22.32 16.5769 23.0231C17.28 23.7262 17.28 24.8681 16.5769 25.5713H16.5712ZM24.1369 15.2213L24.795 14.2088C22.9444 13.6519 21.6 11.9306 21.6 9.9C21.6 7.41375 23.6138 5.4 26.1 5.4C28.5863 5.4 30.6 7.41375 30.6 9.9C30.6 11.1881 30.2288 12.4481 29.5256 13.5281L27.1575 17.1788C26.6175 18.0113 25.5037 18.2531 24.6656 17.7075C23.8275 17.1619 23.5912 16.0538 24.1369 15.2156V15.2213ZM27.45 9.9C27.45 9.15188 26.8481 8.55 26.1 8.55C25.3519 8.55 24.75 9.15188 24.75 9.9C24.75 10.6481 25.3519 11.25 26.1 11.25C26.8481 11.25 27.45 10.6481 27.45 9.9ZM27.1519 20.1375C27.6187 20.475 27.9 21.0206 27.9 21.6V27H28.8C29.7956 27 30.6 27.8044 30.6 28.8C30.6 29.7956 29.7956 30.6 28.8 30.6H23.4C22.4044 30.6 21.6 29.7956 21.6 28.8C21.6 27.8044 22.4044 27 23.4 27H24.3V24.0975L23.9681 24.21C23.0231 24.525 22.005 24.0131 21.69 23.0738C21.375 22.1344 21.8869 21.1106 22.8263 20.7956L25.5262 19.8956C26.0775 19.71 26.6794 19.8056 27.1462 20.1431L27.1519 20.1375Z" fill="black"/>
</svg>
