<svg width="64" height="64" viewBox="0 0 64 64" fill="none" xmlns="http://www.w3.org/2000/svg">
<path d="M18.31 13.74C17.06 12.49 15.03 12.49 13.78 13.74C12.53 14.99 12.53 17.02 13.78 18.27L27.52 32L13.79 45.74C12.54 46.99 12.54 49.02 13.79 50.27C15.04 51.52 17.07 51.52 18.32 50.27L32.05 36.53L45.79 50.26C47.04 51.51 49.07 51.51 50.32 50.26C51.57 49.01 51.57 46.98 50.32 45.73L36.58 32L50.31 18.26C51.56 17.01 51.56 14.98 50.31 13.73C49.06 12.48 47.03 12.48 45.78 13.73L32.05 27.47L18.31 13.74Z" fill="white"/>
</svg>
